<svg xmlns="http://www.w3.org/2000/svg" viewBox="0 0 64 64">
  <defs>
    <linearGradient id="bg" x1="8" y1="6" x2="56" y2="58" gradientUnits="userSpaceOnUse">
      <stop stop-color="#ff8fab"/>
      <stop offset="1" stop-color="#df3f68"/>
    </linearGradient>
    <linearGradient id="dice" x1="18" y1="17" x2="47" y2="48" gradientUnits="userSpaceOnUse">
      <stop stop-color="#fffdf6"/>
      <stop offset="1" stop-color="#ffe4ec"/>
    </linearGradient>
  </defs>
  <rect width="64" height="64" rx="18" fill="url(#bg)"/>
  <path d="M32 52s-20-11.6-20-27.3C12 17.5 16.5 13 22.4 13c4.2 0 7.5 2.4 9.6 6 2.1-3.6 5.4-6 9.6-6C47.5 13 52 17.5 52 24.7 52 40.4 32 52 32 52Z" fill="#fff9ef" opacity=".92"/>
  <rect x="19" y="20" width="26" height="26" rx="8" fill="url(#dice)" stroke="#df3f68" stroke-width="2"/>
  <circle cx="27" cy="28" r="3" fill="#ff6f91"/>
  <circle cx="37" cy="38" r="3" fill="#36cdb6"/>
  <circle cx="32" cy="33" r="3" fill="#ffd166"/>
</svg>
